<svg width="308" height="58" viewBox="0 0 308 58" fill="none" xmlns="http://www.w3.org/2000/svg">
<rect width="308" height="58" fill="white"/>
<g filter="url(#filter0_d_0_1)">
<rect x="4" width="300" height="50" rx="5" fill="white"/>
<rect x="4.5" y="0.5" width="299" height="49" rx="4.5" stroke="#CF9952"/>
</g>
<path d="M126.75 27.47H139.035V28.505H126.75V27.47ZM132.24 24.56H133.485V27.905H132.24V24.56ZM128.235 17.615H137.52V21.725H129.51V24.44H128.28V20.72H136.29V18.62H128.235V17.615ZM128.28 23.915H137.835V24.935H128.28V23.915ZM141.869 18.05H150.599V19.055H141.869V18.05ZM140.549 27.155H152.804V28.19H140.549V27.155ZM149.939 18.05H151.154V19.4C151.154 21.14 151.154 23.075 150.644 26L149.399 25.88C149.939 23.105 149.939 21.08 149.939 19.4V18.05ZM157.948 17.645C159.943 17.645 161.353 19.49 161.353 22.37C161.353 25.265 159.943 27.11 157.948 27.11C155.953 27.11 154.543 25.265 154.543 22.37C154.543 19.49 155.953 17.645 157.948 17.645ZM157.948 18.77C156.628 18.77 155.728 20.18 155.728 22.37C155.728 24.575 156.628 26.015 157.948 26.015C159.253 26.015 160.168 24.575 160.168 22.37C160.168 20.18 159.253 18.77 157.948 18.77ZM163.513 16.61H164.773V30.17H163.513V16.61ZM164.473 22.025H166.993V23.075H164.473V22.025ZM168.131 22.805H180.431V23.825H168.131V22.805ZM173.636 23.24H174.851V25.31H173.636V23.24ZM173.606 25.94H174.671V26.36C174.671 28.43 172.271 29.795 169.436 30.125L169.031 29.165C171.476 28.91 173.606 27.8 173.606 26.36V25.94ZM173.816 25.94H174.881V26.36C174.881 27.845 176.996 28.925 179.456 29.165L179.051 30.125C176.231 29.795 173.816 28.475 173.816 26.36V25.94ZM174.266 16.805C177.206 16.805 179.036 17.72 179.036 19.295C179.036 20.87 177.206 21.785 174.266 21.785C171.311 21.785 169.496 20.87 169.496 19.295C169.496 17.72 171.311 16.805 174.266 16.805ZM174.266 17.765C172.091 17.765 170.771 18.32 170.771 19.295C170.771 20.255 172.091 20.825 174.266 20.825C176.426 20.825 177.761 20.255 177.761 19.295C177.761 18.32 176.426 17.765 174.266 17.765Z" fill="#CF9952"/>
<rect x="14.5" y="8.5" width="279" height="34" rx="4.5" stroke="#CF9952" stroke-dasharray="5 5"/>
<defs>
<filter id="filter0_d_0_1" x="0" y="0" width="308" height="58" filterUnits="userSpaceOnUse" color-interpolation-filters="sRGB">
<feFlood flood-opacity="0" result="BackgroundImageFix"/>
<feColorMatrix in="SourceAlpha" type="matrix" values="0 0 0 0 0 0 0 0 0 0 0 0 0 0 0 0 0 0 127 0" result="hardAlpha"/>
<feOffset dy="4"/>
<feGaussianBlur stdDeviation="2"/>
<feComposite in2="hardAlpha" operator="out"/>
<feColorMatrix type="matrix" values="0 0 0 0 0 0 0 0 0 0 0 0 0 0 0 0 0 0 0.25 0"/>
<feBlend mode="normal" in2="BackgroundImageFix" result="effect1_dropShadow_0_1"/>
<feBlend mode="normal" in="SourceGraphic" in2="effect1_dropShadow_0_1" result="shape"/>
</filter>
</defs>
</svg>
