<svg width="433" height="426" viewBox="0 0 433 426" fill="none" xmlns="http://www.w3.org/2000/svg">
<path fill-rule="evenodd" clip-rule="evenodd" d="M204.5 21.5C275.903 25.8643 347.236 31.1976 418.5 37.5C418.5 155.833 418.5 274.167 418.5 392.5C351.129 397.436 283.796 402.769 216.5 408.5C149.513 403.12 82.5133 397.787 15.5 392.5C15.5 273.833 15.5 155.167 15.5 36.5C78.6941 32.1474 141.694 27.1474 204.5 21.5Z" fill="#E8CFAE"/>
<path fill-rule="evenodd" clip-rule="evenodd" d="M26.5 44.5C25.1667 44.5 23.8333 44.5 22.5 44.5C22.1672 158.001 22.5005 271.335 23.5 384.5C87.1537 389.721 150.82 394.888 214.5 400C215.406 401.699 215.739 403.533 215.5 405.5C149.826 400.255 84.1591 394.922 18.5 389.5C18.5 272.833 18.5 156.167 18.5 39.5C84.1442 34.2097 149.811 29.2097 215.5 24.5C215.5 26.1667 215.5 27.8333 215.5 29.5C152.496 34.4448 89.4957 39.4448 26.5 44.5Z" fill="#FEFDFC"/>
<path fill-rule="evenodd" clip-rule="evenodd" d="M218.5 24.5C284.147 29.7762 349.814 34.7762 415.5 39.5C415.5 156.167 415.5 272.833 415.5 389.5C349.856 394.81 284.189 399.81 218.5 404.5C218.5 402.833 218.5 401.167 218.5 399.5C282.514 394.721 346.514 389.721 410.5 384.5C410.5 271.167 410.5 157.833 410.5 44.5C346.467 39.9422 282.467 34.9422 218.5 29.5C218.5 27.8333 218.5 26.1667 218.5 24.5Z" fill="#FEFCFB"/>
<path fill-rule="evenodd" clip-rule="evenodd" d="M206.5 32.5C273.516 37.2235 340.516 42.2235 407.5 47.5C407.5 158.833 407.5 270.167 407.5 381.5C343.799 386.37 280.132 391.703 216.5 397.5C153.461 392.31 90.4613 386.976 27.5 381.5C26.5 270.169 26.1667 158.835 26.5 47.5C86.6756 42.8187 146.676 37.8187 206.5 32.5Z" fill="#FEFEFE"/>
<path fill-rule="evenodd" clip-rule="evenodd" d="M26.5 44.5C25.791 45.404 24.791 45.7373 23.5 45.5C23.5 158.5 23.5 271.5 23.5 384.5C22.5005 271.335 22.1672 158.001 22.5 44.5C23.8333 44.5 25.1667 44.5 26.5 44.5Z" fill="#F1E1CC"/>
<path fill-rule="evenodd" clip-rule="evenodd" d="M324.5 143.5C324.5 144.167 324.167 144.5 323.5 144.5C323.083 143.876 322.416 143.543 321.5 143.5C303.962 147.882 286.629 152.549 269.5 157.5C268.833 157.5 268.167 157.5 267.5 157.5C262.62 158.467 257.953 159.801 253.5 161.5C252.209 161.263 251.209 161.596 250.5 162.5C246.213 162.947 242.047 163.947 238 165.5C237.235 165.43 236.735 165.097 236.5 164.5C243.035 161.981 248.869 158.314 254 153.5C256.919 146.432 255.753 140.265 250.5 135C249.552 134.517 248.552 134.351 247.5 134.5C241.38 132.937 235.38 133.604 229.5 136.5C228.761 136.631 228.094 136.464 227.5 136C226.915 134.698 226.249 133.531 225.5 132.5C225.277 128.838 224.277 125.505 222.5 122.5C222.737 121.209 222.404 120.209 221.5 119.5C221.5 119.167 221.5 118.833 221.5 118.5C221.335 116.173 220.669 114.007 219.5 112C220.167 111.667 220.833 111.333 221.5 111C221.272 110.601 220.938 110.435 220.5 110.5C230.314 107.545 240.314 104.878 250.5 102.5C250.917 103.124 251.584 103.457 252.5 103.5C275.477 97.6724 298.477 92.0057 321.5 86.5C326.15 104.432 330.483 122.432 334.5 140.5C330.786 140.59 327.452 141.59 324.5 143.5Z" fill="#E7E6E2"/>
<path fill-rule="evenodd" clip-rule="evenodd" d="M220.5 110.5C220.938 110.435 221.272 110.601 221.5 111C220.833 111.333 220.167 111.667 219.5 112C220.669 114.007 221.335 116.173 221.5 118.5C221.167 118.5 220.833 118.5 220.5 118.5C219.941 116.321 219.274 114.154 218.5 112C218.836 110.97 219.503 110.47 220.5 110.5Z" fill="#727271"/>
<path fill-rule="evenodd" clip-rule="evenodd" d="M324.5 143.5C327.452 141.59 330.786 140.59 334.5 140.5C330.483 122.432 326.15 104.432 321.5 86.5C298.477 92.0057 275.477 97.6724 252.5 103.5C251.584 103.457 250.917 103.124 250.5 102.5C274.361 96.2013 298.361 90.5346 322.5 85.5C327.084 103.336 331.751 121.169 336.5 139C336.355 139.772 336.022 140.439 335.5 141C331.93 142.31 328.263 143.143 324.5 143.5Z" fill="#7F7F7E"/>
<path fill-rule="evenodd" clip-rule="evenodd" d="M191.5 119.5C201.91 119.882 212.243 120.882 222.5 122.5C224.277 125.505 225.277 128.838 225.5 132.5C225.366 134.292 225.699 135.958 226.5 137.5C221.536 140.726 216.203 141.56 210.5 140C208.963 138.89 208.297 137.39 208.5 135.5C207.5 135.5 206.5 135.5 205.5 135.5C206.422 138.126 207.422 140.793 208.5 143.5C206.473 145.339 204.14 145.839 201.5 145C200.884 142.821 199.717 140.988 198 139.5C197.218 142.257 197.718 144.757 199.5 147C198.022 149.039 196.022 149.872 193.5 149.5C193.665 145.818 193.499 142.152 193 138.5C191.989 137.663 190.822 137.33 189.5 137.5C189.571 140.311 190.238 142.978 191.5 145.5C191.457 146.416 191.124 147.083 190.5 147.5C184.36 149.672 178.027 151.339 171.5 152.5C169.801 152.34 168.134 152.506 166.5 153C173.923 156.003 181.256 156.17 188.5 153.5C203.862 146.985 219.529 141.318 235.5 136.5C236.167 136.5 236.5 136.833 236.5 137.5C235.305 137.866 234.639 138.699 234.5 140C236.928 144.95 238.761 150.117 240 155.5C242.812 156.498 245.646 156.664 248.5 156C245.003 158.583 241.336 160.916 237.5 163C228.319 166.727 218.985 170.061 209.5 173C207.273 173.941 205.273 175.108 203.5 176.5C200.008 177.41 197.008 179.076 194.5 181.5C189.761 184.731 185.428 188.564 181.5 193C173.62 198.441 165.286 203.108 156.5 207C145.813 210.171 135.146 213.337 124.5 216.5C144.811 213.947 163.644 206.947 181 195.5C183.341 196.007 183.841 197.174 182.5 199C165.165 210.168 146.832 219.501 127.5 227C118.51 228.023 109.51 228.856 100.5 229.5C101.074 209.838 101.407 190.172 101.5 170.5C110.789 167.689 119.455 163.523 127.5 158C143.167 145.667 158.833 133.333 174.5 121C180.044 119.596 185.71 119.096 191.5 119.5Z" fill="#D89776"/>
<path fill-rule="evenodd" clip-rule="evenodd" d="M191.5 119.5C201.5 119.5 211.5 119.5 221.5 119.5C222.404 120.209 222.737 121.209 222.5 122.5C212.243 120.882 201.91 119.882 191.5 119.5Z" fill="#825C48"/>
<path fill-rule="evenodd" clip-rule="evenodd" d="M225.5 132.5C226.249 133.531 226.915 134.698 227.5 136C228.094 136.464 228.761 136.631 229.5 136.5C228.791 137.404 227.791 137.737 226.5 137.5C225.699 135.958 225.366 134.292 225.5 132.5Z" fill="#6F6863"/>
<path fill-rule="evenodd" clip-rule="evenodd" d="M247.5 134.5C254.025 138.575 255.858 144.242 253 151.5C252.504 149.965 252.67 148.465 253.5 147C253.046 144.97 252.38 143.137 251.5 141.5C250.647 138.482 248.647 136.649 245.5 136C242.314 135.404 239.314 135.904 236.5 137.5C236.5 136.833 236.167 136.5 235.5 136.5C239.21 134.864 243.21 134.198 247.5 134.5Z" fill="#966952"/>
<path fill-rule="evenodd" clip-rule="evenodd" d="M220.5 118.5C220.833 118.5 221.167 118.5 221.5 118.5C221.5 118.833 221.5 119.167 221.5 119.5C211.5 119.5 201.5 119.5 191.5 119.5C185.71 119.096 180.044 119.596 174.5 121C158.833 133.333 143.167 145.667 127.5 158C119.455 163.523 110.789 167.689 101.5 170.5C101.5 170.167 101.5 169.833 101.5 169.5C112.035 165.9 121.701 160.734 130.5 154C144.957 141.608 159.957 129.942 175.5 119C190.496 118.5 205.496 118.333 220.5 118.5Z" fill="#1B1716"/>
<path fill-rule="evenodd" clip-rule="evenodd" d="M247.5 134.5C243.21 134.198 239.21 134.864 235.5 136.5C219.529 141.318 203.862 146.985 188.5 153.5C190.081 151.858 190.747 149.858 190.5 147.5C191.124 147.083 191.457 146.416 191.5 145.5C190.238 142.978 189.571 140.311 189.5 137.5C190.822 137.33 191.989 137.663 193 138.5C193.499 142.152 193.665 145.818 193.5 149.5C196.022 149.872 198.022 149.039 199.5 147C197.718 144.757 197.218 142.257 198 139.5C199.717 140.988 200.884 142.821 201.5 145C204.14 145.839 206.473 145.339 208.5 143.5C207.422 140.793 206.422 138.126 205.5 135.5C206.5 135.5 207.5 135.5 208.5 135.5C208.297 137.39 208.963 138.89 210.5 140C216.203 141.56 221.536 140.726 226.5 137.5C227.791 137.737 228.791 137.404 229.5 136.5C235.38 133.604 241.38 132.937 247.5 134.5Z" fill="#2A2522"/>
<path fill-rule="evenodd" clip-rule="evenodd" d="M216.5 146.5C217.376 146.369 218.043 146.702 218.5 147.5C220.428 150.788 222.261 154.121 224 157.5C224.667 159.167 224.667 160.833 224 162.5C222.861 159.417 221.528 156.417 220 153.5C219.748 155.931 220.248 158.265 221.5 160.5C221.167 160.833 220.833 161.167 220.5 161.5C219.317 157.449 217.65 153.615 215.5 150C216.337 148.989 216.67 147.822 216.5 146.5Z" fill="#2A1E18"/>
<path fill-rule="evenodd" clip-rule="evenodd" d="M190.5 147.5C190.747 149.858 190.081 151.858 188.5 153.5C182.642 153.822 176.975 153.489 171.5 152.5C178.027 151.339 184.36 149.672 190.5 147.5Z" fill="#916D5A"/>
<path fill-rule="evenodd" clip-rule="evenodd" d="M323.5 144.5C306.476 148.673 289.476 153.006 272.5 157.5C271.287 157.747 270.62 158.414 270.5 159.5C269.662 159.158 269.328 158.492 269.5 157.5C286.629 152.549 303.962 147.882 321.5 143.5C322.416 143.543 323.083 143.876 323.5 144.5Z" fill="#7C7B7B"/>
<path fill-rule="evenodd" clip-rule="evenodd" d="M171.5 152.5C176.975 153.489 182.642 153.822 188.5 153.5C181.256 156.17 173.923 156.003 166.5 153C168.134 152.506 169.801 152.34 171.5 152.5Z" fill="#322620"/>
<path fill-rule="evenodd" clip-rule="evenodd" d="M267.5 158.5C270.634 164.072 272.468 170.072 273 176.5C268.164 180.642 263.664 180.309 259.5 175.5C259.5 170.5 259.5 165.5 259.5 160.5C262.428 160.435 265.095 159.768 267.5 158.5Z" fill="#D39473"/>
<path fill-rule="evenodd" clip-rule="evenodd" d="M267.5 157.5C267.5 157.833 267.5 158.167 267.5 158.5C265.095 159.768 262.428 160.435 259.5 160.5C259.5 165.5 259.5 170.5 259.5 175.5C257.901 173.396 256.068 171.396 254 169.5C253.699 166.538 253.532 163.872 253.5 161.5C257.953 159.801 262.62 158.467 267.5 157.5Z" fill="#876958"/>
<path fill-rule="evenodd" clip-rule="evenodd" d="M250.5 162.5C251.475 165.067 252.142 167.733 252.5 170.5C248.223 169.403 243.89 169.403 239.5 170.5C238.313 169.466 237.48 168.133 237 166.5C236.536 167.094 236.369 167.761 236.5 168.5C230.613 168.947 224.946 170.28 219.5 172.5C219.47 171.503 219.97 170.836 221 170.5C226.235 168.59 231.401 166.59 236.5 164.5C236.735 165.097 237.235 165.43 238 165.5C242.047 163.947 246.213 162.947 250.5 162.5Z" fill="#564942"/>
<path fill-rule="evenodd" clip-rule="evenodd" d="M236.5 168.5C236.573 170.027 235.906 171.027 234.5 171.5C233.054 170.387 231.387 170.22 229.5 171C224.451 172.634 220.784 175.801 218.5 180.5C217.233 181.087 216.233 181.087 215.5 180.5C216.847 177.807 218.18 175.14 219.5 172.5C224.946 170.28 230.613 168.947 236.5 168.5Z" fill="#785F51"/>
<path fill-rule="evenodd" clip-rule="evenodd" d="M234.5 171.5C225.918 176.9 224.251 184.066 229.5 193C226.304 197.718 221.97 200.551 216.5 201.5C215.5 201.167 214.5 200.833 213.5 200.5C215.633 193.457 212.967 190.123 205.5 190.5C203.307 190.326 201.473 190.993 200 192.5C198.107 195.618 196.774 198.951 196 202.5C193.617 196.796 194.117 191.463 197.5 186.5C198.609 186.443 199.609 186.11 200.5 185.5C202.099 185.768 203.432 185.434 204.5 184.5C210.145 183.873 215.811 183.373 221.5 183C220.627 181.955 219.627 181.122 218.5 180.5C220.784 175.801 224.451 172.634 229.5 171C231.387 170.22 233.054 170.387 234.5 171.5Z" fill="#D39373"/>
<path fill-rule="evenodd" clip-rule="evenodd" d="M247.5 134.5C248.552 134.351 249.552 134.517 250.5 135C255.753 140.265 256.919 146.432 254 153.5C248.869 158.314 243.035 161.981 236.5 164.5C231.401 166.59 226.235 168.59 221 170.5C219.97 170.836 219.47 171.503 219.5 172.5C218.18 175.14 216.847 177.807 215.5 180.5C216.233 181.087 217.233 181.087 218.5 180.5C219.627 181.122 220.627 181.955 221.5 183C215.811 183.373 210.145 183.873 204.5 184.5C203.448 184.649 202.448 184.483 201.5 184C202.667 183.5 203.5 182.667 204 181.5C204.383 182.056 204.883 182.389 205.5 182.5C208.167 182.167 210.833 181.833 213.5 181.5C211.843 176.728 209.51 176.395 206.5 180.5C205.957 180.44 205.624 180.107 205.5 179.5C208.476 175.776 207.81 174.776 203.5 176.5C205.273 175.108 207.273 173.941 209.5 173C218.985 170.061 228.319 166.727 237.5 163C241.336 160.916 245.003 158.583 248.5 156C245.646 156.664 242.812 156.498 240 155.5C238.761 150.117 236.928 144.95 234.5 140C234.639 138.699 235.305 137.866 236.5 137.5C239.314 135.904 242.314 135.404 245.5 136C248.647 136.649 250.647 138.482 251.5 141.5C252.38 143.137 253.046 144.97 253.5 147C252.67 148.465 252.504 149.965 253 151.5C255.858 144.242 254.025 138.575 247.5 134.5Z" fill="#201B18"/>
<path fill-rule="evenodd" clip-rule="evenodd" d="M215.5 172.5C217.688 173.536 217.688 175.036 215.5 177C213.58 177.215 211.914 176.548 210.5 175C212.315 174.243 213.981 173.41 215.5 172.5Z" fill="#635046"/>
<path fill-rule="evenodd" clip-rule="evenodd" d="M251.5 141.5C253.604 150.358 250.271 154.691 241.5 154.5C240.502 150.342 239.002 146.342 237 142.5C236.219 141.056 236.386 139.723 237.5 138.5C242.94 136.465 247.607 137.465 251.5 141.5Z" fill="#D6B7AF"/>
<path fill-rule="evenodd" clip-rule="evenodd" d="M206.5 180.5C206.167 181.167 205.833 181.833 205.5 182.5C204.883 182.389 204.383 182.056 204 181.5C203.5 182.667 202.667 183.5 201.5 184C202.448 184.483 203.448 184.649 204.5 184.5C203.432 185.434 202.099 185.768 200.5 185.5C198.636 183.986 196.636 182.653 194.5 181.5C197.008 179.076 200.008 177.41 203.5 176.5C207.81 174.776 208.476 175.776 205.5 179.5C205.624 180.107 205.957 180.44 206.5 180.5Z" fill="#493B33"/>
<path fill-rule="evenodd" clip-rule="evenodd" d="M205.5 182.5C205.833 181.833 206.167 181.167 206.5 180.5C209.51 176.395 211.843 176.728 213.5 181.5C210.833 181.833 208.167 182.167 205.5 182.5Z" fill="#EFEFEF"/>
<path fill-rule="evenodd" clip-rule="evenodd" d="M101.5 169.5C101.5 169.833 101.5 170.167 101.5 170.5C100.833 181.833 100.167 193.167 99.5 204.5C98.8549 192.452 99.5216 180.785 101.5 169.5Z" fill="#4F4F4F"/>
<path fill-rule="evenodd" clip-rule="evenodd" d="M186.5 191.5C187.978 191.238 189.311 191.571 190.5 192.5C189.972 194.336 189.306 196.003 188.5 197.5C186.695 196.763 185.029 195.763 183.5 194.5C184.188 193.145 185.188 192.145 186.5 191.5Z" fill="#A0786A"/>
<path fill-rule="evenodd" clip-rule="evenodd" d="M197.5 186.5C194.832 187.457 193.332 189.457 193 192.5C193.207 195.918 193.041 199.251 192.5 202.5C191.128 201.488 189.795 200.488 188.5 199.5C189.506 199.062 189.506 198.396 188.5 197.5C189.306 196.003 189.972 194.336 190.5 192.5C189.311 191.571 187.978 191.238 186.5 191.5C187.523 188.89 189.523 186.39 192.5 184C194.553 183.675 196.553 184.009 198.5 185C197.944 185.383 197.611 185.883 197.5 186.5Z" fill="#624C41"/>
<path fill-rule="evenodd" clip-rule="evenodd" d="M267.5 158.5C267.5 158.167 267.5 157.833 267.5 157.5C268.167 157.5 268.833 157.5 269.5 157.5C269.328 158.492 269.662 159.158 270.5 159.5C273.038 165.267 274.205 171.267 274 177.5C269.994 182.166 265.494 182.666 260.5 179C258.291 177.127 256.458 174.96 255 172.5C251.443 181.403 245.61 188.569 237.5 194C234.833 194.333 232.167 194.667 229.5 195C224.285 200.461 218.285 204.795 211.5 208C208.594 209.318 205.594 209.652 202.5 209C199.014 207.004 195.681 204.837 192.5 202.5C193.041 199.251 193.207 195.918 193 192.5C193.332 189.457 194.832 187.457 197.5 186.5C194.117 191.463 193.617 196.796 196 202.5C196.774 198.951 198.107 195.618 200 192.5C201.473 190.993 203.307 190.326 205.5 190.5C212.967 190.123 215.633 193.457 213.5 200.5C214.5 200.833 215.5 201.167 216.5 201.5C221.97 200.551 226.304 197.718 229.5 193C224.251 184.066 225.918 176.9 234.5 171.5C235.906 171.027 236.573 170.027 236.5 168.5C236.369 167.761 236.536 167.094 237 166.5C237.48 168.133 238.313 169.466 239.5 170.5C235.79 172.785 232.29 175.452 229 178.5C228.209 182.926 228.543 187.259 230 191.5C231.726 192.576 233.559 192.743 235.5 192C234.09 187.782 235.09 184.116 238.5 181C241.584 179.016 244.584 179.182 247.5 181.5C251.44 178.886 253.106 175.22 252.5 170.5C252.142 167.733 251.475 165.067 250.5 162.5C251.209 161.596 252.209 161.263 253.5 161.5C253.532 163.872 253.699 166.538 254 169.5C256.068 171.396 257.901 173.396 259.5 175.5C263.664 180.309 268.164 180.642 273 176.5C272.468 170.072 270.634 164.072 267.5 158.5Z" fill="#221D1B"/>
<path fill-rule="evenodd" clip-rule="evenodd" d="M202.5 191.5C206.177 191.338 209.511 192.338 212.5 194.5C213.248 196.416 213.248 198.416 212.5 200.5C207.797 200.437 203.13 200.771 198.5 201.5C198.862 197.741 200.195 194.407 202.5 191.5Z" fill="#D1B3AB"/>
<path fill-rule="evenodd" clip-rule="evenodd" d="M240.5 181.5C242.977 181.051 244.977 181.717 246.5 183.5C243.813 187.021 240.647 190.021 237 192.5C235.662 187.96 236.829 184.293 240.5 181.5Z" fill="#D0B2AA"/>
<path fill-rule="evenodd" clip-rule="evenodd" d="M252.5 170.5C253.106 175.22 251.44 178.886 247.5 181.5C244.584 179.182 241.584 179.016 238.5 181C235.09 184.116 234.09 187.782 235.5 192C233.559 192.743 231.726 192.576 230 191.5C228.543 187.259 228.209 182.926 229 178.5C232.29 175.452 235.79 172.785 239.5 170.5C243.89 169.403 248.223 169.403 252.5 170.5Z" fill="#D69674"/>
<path fill-rule="evenodd" clip-rule="evenodd" d="M198.5 205.5C203.316 204.35 208.316 204.184 213.5 205C208.654 208.11 203.654 208.277 198.5 205.5Z" fill="#AA7C64"/>
<path fill-rule="evenodd" clip-rule="evenodd" d="M101.5 170.5C101.407 190.172 101.074 209.838 100.5 229.5C109.51 228.856 118.51 228.023 127.5 227C146.832 219.501 165.165 210.168 182.5 199C183.841 197.174 183.341 196.007 181 195.5C163.644 206.947 144.811 213.947 124.5 216.5C135.146 213.337 145.813 210.171 156.5 207C165.286 203.108 173.62 198.441 181.5 193C185.428 188.564 189.761 184.731 194.5 181.5C196.636 182.653 198.636 183.986 200.5 185.5C199.609 186.11 198.609 186.443 197.5 186.5C197.611 185.883 197.944 185.383 198.5 185C196.553 184.009 194.553 183.675 192.5 184C189.523 186.39 187.523 188.89 186.5 191.5C185.188 192.145 184.188 193.145 183.5 194.5C185.029 195.763 186.695 196.763 188.5 197.5C189.506 198.396 189.506 199.062 188.5 199.5C186.801 199.34 185.134 199.506 183.5 200C166.165 211.168 147.832 220.501 128.5 228C118.816 229.112 109.149 230.279 99.5 231.5C99.5 222.5 99.5 213.5 99.5 204.5C100.167 193.167 100.833 181.833 101.5 170.5Z" fill="#1D1815"/>
<path fill-rule="evenodd" clip-rule="evenodd" d="M55.5 264.5C55.1518 257.315 51.4851 254.481 44.5 256C40.7882 258.602 39.6215 262.102 41 266.5C41.8333 268.667 43.3333 270.167 45.5 271C158.833 271.5 272.166 271.667 385.5 271.5C386.167 271.5 386.833 271.5 387.5 271.5C387.082 272.222 386.416 272.722 385.5 273C272.167 273.667 158.833 273.667 45.5 273C38.1688 268.659 36.8354 262.992 41.5 256C47.1179 252.19 51.9513 253.023 56 258.5C56.7891 260.712 56.6225 262.712 55.5 264.5Z" fill="#CD9E5A"/>
<path fill-rule="evenodd" clip-rule="evenodd" d="M55.5 264.5C54.5385 268.146 52.2051 269.313 48.5 268C45.6736 265.136 46.1736 262.969 50 261.5C50.772 261.645 51.4387 261.978 52 262.5C52.3333 263.833 52.6667 265.167 53 266.5C53.7083 265.619 54.5416 264.953 55.5 264.5Z" fill="#CFA261"/>
<path fill-rule="evenodd" clip-rule="evenodd" d="M387.5 271.5C386.833 271.5 386.167 271.5 385.5 271.5C391.724 268.224 393.057 263.39 389.5 257C380.284 253.56 376.618 256.56 378.5 266C379.167 266.667 379.833 266.667 380.5 266C379.289 264.887 379.289 263.72 380.5 262.5C385.423 261.834 386.423 263.667 383.5 268C376.201 267.923 374.034 264.423 377 257.5C383.042 251.905 388.375 252.572 393 259.5C394.63 265.234 392.796 269.234 387.5 271.5Z" fill="#CC9C58"/>
<path fill-rule="evenodd" clip-rule="evenodd" d="M161.5 290.5C162.494 300.987 162.828 311.654 162.5 322.5C168.369 320.568 174.036 318.068 179.5 315C180.833 314.333 182.167 314.333 183.5 315C176.62 318.357 169.786 321.857 163 325.5C162.959 336.912 162.126 348.245 160.5 359.5C160.167 357.167 159.833 354.833 159.5 352.5C160.093 331.769 160.76 311.102 161.5 290.5Z" fill="#D6A76A"/>
<path fill-rule="evenodd" clip-rule="evenodd" d="M218.5 294.5C219.828 299.288 220.495 304.454 220.5 310C220.333 315.167 220.167 320.333 220 325.5C218.526 315.331 218.026 304.998 218.5 294.5Z" fill="#D6A669"/>
<path fill-rule="evenodd" clip-rule="evenodd" d="M292.5 296.5C293.827 300.783 294.493 305.449 294.5 310.5C294.333 315.167 294.167 319.833 294 324.5C293.667 324.833 293.333 325.167 293 325.5C292.502 322.518 292.335 319.518 292.5 316.5C288.573 317.531 284.739 318.865 281 320.5C280.833 320.167 280.667 319.833 280.5 319.5C284.062 317.134 287.896 315.134 292 313.5C292.808 311.421 292.641 309.421 291.5 307.5C287.625 309.069 283.792 310.736 280 312.5C279.5 312.167 279 311.833 278.5 311.5C282.923 308.915 287.589 306.915 292.5 305.5C292.5 302.5 292.5 299.5 292.5 296.5Z" fill="#D4A363"/>
<path fill-rule="evenodd" clip-rule="evenodd" d="M334.5 296.5C336.134 301.437 337.134 306.771 337.5 312.5C343.693 308.05 350.36 305.383 357.5 304.5C350.963 307.935 344.297 311.102 337.5 314C336.861 318.121 336.195 322.287 335.5 326.5C334.501 316.522 334.168 306.522 334.5 296.5Z" fill="#D4A464"/>
<path fill-rule="evenodd" clip-rule="evenodd" d="M318.5 303.5C319.978 303.238 321.311 303.571 322.5 304.5C318.004 306.615 313.338 307.781 308.5 308C311.91 306.494 315.244 304.994 318.5 303.5Z" fill="#D3A160"/>
<path fill-rule="evenodd" clip-rule="evenodd" d="M106.5 304.5C107.833 304.5 109.167 304.5 110.5 304.5C109.67 309.807 109.003 315.141 108.5 320.5C110.527 320.338 112.527 320.505 114.5 321C109.752 322.566 104.919 324.066 100 325.5C99.5 325.167 99 324.833 98.5 324.5C100.763 323.35 103.096 322.35 105.5 321.5C106.816 316.934 107.483 312.268 107.5 307.5C102.156 308.447 97.1563 310.281 92.5 313C94.8605 318.272 96.0272 323.772 96 329.5C93.4311 322.845 91.2644 316.012 89.5 309C89.8333 308.5 90.1667 308 90.5 307.5C91.8544 309.184 93.5211 309.684 95.5 309C99.4683 307.962 103.135 306.462 106.5 304.5Z" fill="#D5A566"/>
<path fill-rule="evenodd" clip-rule="evenodd" d="M272.5 308.5C273.833 308.5 275.167 308.5 276.5 308.5C275.172 313.463 274.339 318.463 274 323.5C275.726 322.424 277.559 322.257 279.5 323C275.953 324.349 272.287 325.516 268.5 326.5C267.833 326.167 267.167 325.833 266.5 325.5C267.991 324.756 269.491 324.09 271 323.5C272.028 319.527 272.861 315.527 273.5 311.5C270.06 312.091 266.727 313.091 263.5 314.5C262.922 319.399 263.588 324.233 265.5 329C264.99 330.826 264.156 330.993 263 329.5C262.125 323.332 260.625 317.332 258.5 311.5C258.833 310.833 259.167 310.167 259.5 309.5C260.249 311.012 261.416 312.012 263 312.5C266.429 311.528 269.596 310.195 272.5 308.5Z" fill="#D5A668"/>
<path fill-rule="evenodd" clip-rule="evenodd" d="M147.5 310.5C148.765 311.514 149.431 313.014 149.5 315C148.494 319.528 148.494 324.028 149.5 328.5C151.198 327.319 152.865 327.319 154.5 328.5C150.065 330.62 145.399 331.787 140.5 332C144.933 329.975 146.933 326.475 146.5 321.5C143.572 321.852 140.738 322.518 138 323.5C138.649 327.446 138.982 331.446 139 335.5C136.4 329.034 134.233 322.367 132.5 315.5C133.167 314.167 133.833 314.167 134.5 315.5C135.123 317.711 136.123 319.711 137.5 321.5C140.07 320.366 142.736 319.532 145.5 319C147.321 316.544 147.988 313.711 147.5 310.5Z" fill="#D6A669"/>
<path fill-rule="evenodd" clip-rule="evenodd" d="M196.5 305.5C197.705 306.672 197.705 308.005 196.5 309.5C201.814 314.846 201.481 320.013 195.5 325C191.3 327.719 188.967 326.719 188.5 322C189.622 315.723 192.288 310.223 196.5 305.5Z" fill="#D3A262"/>
<path fill-rule="evenodd" clip-rule="evenodd" d="M194.5 311.5C199.76 315.764 199.426 319.931 193.5 324C192.552 324.483 191.552 324.649 190.5 324.5C190.412 319.689 191.746 315.356 194.5 311.5Z" fill="#FCF9F5"/>
<path fill-rule="evenodd" clip-rule="evenodd" d="M320.5 309.5C321.5 309.5 322.5 309.5 323.5 309.5C322.53 312.661 320.863 315.494 318.5 318C323.044 318.022 324.544 320.188 323 324.5C320.944 329.065 317.444 331.398 312.5 331.5C312.553 324.226 315.219 318.059 320.5 313C316.179 313.325 312.012 314.492 308 316.5C307.5 316.167 307 315.833 306.5 315.5C311.151 313.289 315.818 311.289 320.5 309.5Z" fill="#D4A363"/>
<path fill-rule="evenodd" clip-rule="evenodd" d="M317.5 320.5C318.833 320.5 320.167 320.5 321.5 320.5C321.13 324.545 319.13 327.545 315.5 329.5C314.12 326.068 314.787 323.068 317.5 320.5Z" fill="#FBF7F2"/>
<path fill-rule="evenodd" clip-rule="evenodd" d="M101.5 328.5C103.414 331.684 104.08 335.351 103.5 339.5C111.652 336.919 119.985 335.419 128.5 335C113.504 339.866 98.1703 343.199 82.5 345C88.5314 342.436 94.8648 340.936 101.5 340.5C101.5 336.5 101.5 332.5 101.5 328.5Z" fill="#D4A465"/>
<path fill-rule="evenodd" clip-rule="evenodd" d="M336.5 331.5C337.833 331.5 339.167 331.5 340.5 331.5C339.739 335.712 338.739 339.879 337.5 344C337.833 344.833 338.167 345.667 338.5 346.5C342.002 344.738 345.668 344.238 349.5 345C349.167 345.333 348.833 345.667 348.5 346C341.904 347.982 335.237 349.315 328.5 350C330.768 349.028 332.768 347.695 334.5 346C336.255 342.196 336.921 338.362 336.5 334.5C332.258 336.248 327.924 337.582 323.5 338.5C324.261 342.712 325.261 346.879 326.5 351C326.167 351.833 325.833 352.667 325.5 353.5C323.502 347.172 321.502 340.839 319.5 334.5C320.002 333.479 320.668 333.312 321.5 334C322.071 335.205 322.738 336.372 323.5 337.5C328.105 335.865 332.438 333.865 336.5 331.5Z" fill="#D4A364"/>
<path fill-rule="evenodd" clip-rule="evenodd" d="M210.5 328.5C212.5 328.5 214.5 328.5 216.5 328.5C214.713 332.729 212.38 336.729 209.5 340.5C209.833 340.833 210.167 341.167 210.5 341.5C213.897 339.478 217.564 338.478 221.5 338.5C220.151 344.371 217.817 349.871 214.5 355C221.898 353.033 229.231 350.533 236.5 347.5C236.833 347.833 237.167 348.167 237.5 348.5C229.259 352.954 220.593 356.288 211.5 358.5C214.092 352.978 216.425 347.311 218.5 341.5C214.436 341.576 210.603 342.576 207 344.5C206.5 344.167 206 343.833 205.5 343.5C207.774 339.228 210.441 335.228 213.5 331.5C213.167 331.167 212.833 330.833 212.5 330.5C208.735 331.549 205.068 332.882 201.5 334.5C201.167 334.167 200.833 333.833 200.5 333.5C203.727 331.436 207.06 329.77 210.5 328.5Z" fill="#D4A364"/>
<path fill-rule="evenodd" clip-rule="evenodd" d="M290.5 328.5C291.376 328.369 292.043 328.702 292.5 329.5C291.833 330.5 291.167 331.5 290.5 332.5C294.157 334.48 295.657 337.48 295 341.5C292.594 346.433 288.76 349.1 283.5 349.5C283.335 346.482 283.502 343.482 284 340.5C285.937 336.286 288.104 332.286 290.5 328.5Z" fill="#D4A465"/>
<path fill-rule="evenodd" clip-rule="evenodd" d="M288.5 334.5C291.286 334.956 292.619 336.623 292.5 339.5C292.406 343.594 290.406 346.261 286.5 347.5C285.353 345.235 285.186 342.902 286 340.5C287.122 338.593 287.955 336.593 288.5 334.5Z" fill="#FCF9F6"/>
</svg>
