<svg width="308" height="58" viewBox="0 0 308 58" fill="none" xmlns="http://www.w3.org/2000/svg">
<rect width="308" height="58" fill="white"/>
<g filter="url(#filter0_d_0_1)">
<rect x="4" width="300" height="50" rx="5" fill="#CF9952"/>
</g>
<path d="M120.04 16.61H121.24V30.17H120.04V16.61ZM117.76 22.13H120.37V23.15H117.76V22.13ZM116.965 16.91H118.135V29.48H116.965V16.91ZM110.395 18.245H111.64V26.075H110.395V18.245ZM110.395 25.58H111.265C112.66 25.58 114.22 25.49 115.99 25.145L116.125 26.225C114.28 26.585 112.72 26.66 111.265 26.66H110.395V25.58ZM133.764 18.8H137.679V19.82H133.764V18.8ZM133.764 21.5H137.709V22.505H133.764V21.5ZM137.199 16.61H138.444V24.635H137.199V16.61ZM127.914 17.63H134.109V23.66H127.914V17.63ZM132.879 18.635H129.129V22.67H132.879V18.635ZM133.989 25.025C136.779 25.025 138.504 25.97 138.504 27.59C138.504 29.21 136.779 30.14 133.989 30.14C131.184 30.14 129.459 29.21 129.459 27.59C129.459 25.97 131.184 25.025 133.989 25.025ZM133.989 26.015C131.949 26.015 130.704 26.6 130.704 27.59C130.704 28.58 131.949 29.165 133.989 29.165C136.029 29.165 137.274 28.58 137.274 27.59C137.274 26.6 136.029 26.015 133.989 26.015ZM150.368 16.61H151.613V24.77H150.368V16.61ZM151.268 20.21H153.623V21.245H151.268V20.21ZM143.093 25.535H151.613V29.99H143.093V25.535ZM150.398 26.54H144.308V28.985H150.398V26.54ZM141.128 18.035H149.138V19.055H141.128V18.035ZM145.133 19.715C147.068 19.715 148.373 20.675 148.373 22.145C148.373 23.615 147.068 24.545 145.133 24.545C143.183 24.545 141.878 23.615 141.878 22.145C141.878 20.675 143.183 19.715 145.133 19.715ZM145.133 20.675C143.888 20.675 143.063 21.245 143.063 22.145C143.063 23.03 143.888 23.6 145.133 23.6C146.348 23.6 147.188 23.03 147.188 22.145C147.188 21.245 146.348 20.675 145.133 20.675ZM144.503 16.49H145.748V18.56H144.503V16.49ZM159.201 17.825H165.426V24.11H159.201V17.825ZM164.211 18.83H160.416V23.105H164.211V18.83ZM167.916 16.595H169.161V26.54H167.916V16.595ZM168.771 20.735H171.171V21.77H168.771V20.735ZM160.716 28.85H169.776V29.87H160.716V28.85ZM160.716 25.595H161.961V29.285H160.716V25.595ZM172.445 22.265H184.7V23.285H172.445V22.265ZM174.065 20.165H183.245V21.17H174.065V20.165ZM174.065 17.045H183.095V18.065H175.295V20.975H174.065V17.045ZM173.915 24.455H183.125V27.65H175.175V29.36H173.945V26.72H181.895V25.43H173.915V24.455ZM173.945 29.03H183.53V30.02H173.945V29.03ZM196.114 16.61H197.359V30.17H196.114V16.61ZM192.139 18.065H193.369C193.369 21.995 191.599 25.43 187.069 27.65L186.409 26.645C190.324 24.755 192.139 21.875 192.139 18.275V18.065ZM187.024 18.065H192.679V19.085H187.024V18.065Z" fill="white"/>
<rect x="14.5" y="8.5" width="279" height="34" rx="4.5" stroke="white" stroke-dasharray="5 5"/>
<defs>
<filter id="filter0_d_0_1" x="0" y="0" width="308" height="58" filterUnits="userSpaceOnUse" color-interpolation-filters="sRGB">
<feFlood flood-opacity="0" result="BackgroundImageFix"/>
<feColorMatrix in="SourceAlpha" type="matrix" values="0 0 0 0 0 0 0 0 0 0 0 0 0 0 0 0 0 0 127 0" result="hardAlpha"/>
<feOffset dy="4"/>
<feGaussianBlur stdDeviation="2"/>
<feComposite in2="hardAlpha" operator="out"/>
<feColorMatrix type="matrix" values="0 0 0 0 0 0 0 0 0 0 0 0 0 0 0 0 0 0 0.25 0"/>
<feBlend mode="normal" in2="BackgroundImageFix" result="effect1_dropShadow_0_1"/>
<feBlend mode="normal" in="SourceGraphic" in2="effect1_dropShadow_0_1" result="shape"/>
</filter>
</defs>
</svg>
