<svg width="334" height="96" viewBox="0 0 334 96" fill="none" xmlns="http://www.w3.org/2000/svg">
<path d="M19.7513 16.24C18.5779 16.1867 17.2979 16.04 15.9113 15.8C14.5246 15.5333 13.1913 15.1467 11.9113 14.64C10.6579 14.1067 9.59125 13.44 8.71125 12.64C8.49792 12.4267 8.35125 12.2267 8.27125 12.04C8.21792 11.8267 8.19125 11.5867 8.19125 11.32V5.28C8.08458 5.22667 7.83125 5.30667 7.43125 5.52C7.05792 5.70667 6.68458 5.78667 6.31125 5.76C5.93792 5.70667 5.61792 5.49333 5.35125 5.12L9.39125 2.36C9.60458 2.22666 9.85792 2.2 10.1513 2.28C10.4713 2.36 10.6313 2.6 10.6313 3V10.2C10.6313 10.6267 10.4979 10.96 10.2313 11.2C9.96458 11.44 9.63125 11.56 9.23125 11.56C9.95125 12.0667 10.8579 12.5333 11.9513 12.96C13.0446 13.3867 14.2579 13.7333 15.5913 14C16.9513 14.24 18.3379 14.36 19.7513 14.36C22.5246 14.36 24.8313 13.9067 26.6713 13C27.0446 12.8133 27.3913 12.6267 27.7113 12.44C28.0579 12.2267 28.3646 11.9867 28.6313 11.72C28.8446 11.5067 29.1379 11.44 29.5113 11.52C29.8046 11.5733 30.1246 11.7067 30.4713 11.92C30.8446 12.1333 31.1113 12.3733 31.2713 12.64C31.3779 12.7733 31.4046 12.9333 31.3513 13.12C31.2979 13.28 31.0713 13.48 30.6713 13.72C29.3646 14.52 27.7246 15.16 25.7513 15.64C23.7779 16.0933 21.7779 16.2933 19.7513 16.24ZM0.47125 23.16V21.6C0.47125 21.44 0.484583 21.2933 0.51125 21.16C0.537917 21.0267 0.617917 20.9067 0.75125 20.8C0.804583 20.7733 0.884583 20.7467 0.99125 20.72C1.09792 20.6933 1.32458 20.68 1.67125 20.68C2.04458 20.6533 2.61792 20.64 3.39125 20.64C4.16458 20.6133 5.24458 20.6 6.63125 20.6H29.1113C29.5646 20.6 30.1113 20.5867 30.7513 20.56C31.4179 20.5067 32.0979 20.4267 32.7913 20.32C33.5113 20.2133 34.1379 20.04 34.6713 19.8C34.8579 19.72 35.0046 19.6 35.1113 19.44C35.1646 19.3867 35.2446 19.32 35.3513 19.24C35.4579 19.16 35.5779 19.1467 35.7113 19.2C35.8713 19.2533 35.9646 19.36 35.9913 19.52C36.0179 19.6533 36.0313 19.76 36.0313 19.84V21.4C36.0313 21.56 36.0179 21.7067 35.9913 21.84C35.9646 21.9733 35.8846 22.0933 35.7513 22.2C35.7246 22.2267 35.6579 22.2533 35.5513 22.28C35.4446 22.3067 35.2046 22.3333 34.8313 22.36C34.4846 22.36 33.9113 22.3733 33.1113 22.4C32.3379 22.4 31.2579 22.4 29.8713 22.4H19.8713V35.68C19.8713 35.8933 19.7913 36.1067 19.6313 36.32C19.4979 36.5333 19.3379 36.6933 19.1513 36.8C18.8846 36.9333 18.5913 37 18.2713 37C17.9513 37.0267 17.6713 37 17.4313 36.92V22.4H7.39125C6.96458 22.4 6.41792 22.4133 5.75125 22.44C5.08458 22.4667 4.40458 22.5467 3.71125 22.68C3.01792 22.7867 2.39125 22.96 1.83125 23.2C1.64458 23.28 1.49792 23.4 1.39125 23.56C1.36458 23.6133 1.29792 23.68 1.19125 23.76C1.08458 23.8133 0.95125 23.8267 0.79125 23.8C0.63125 23.7467 0.537917 23.6533 0.51125 23.52C0.484583 23.36 0.47125 23.24 0.47125 23.16ZM64.5803 17.16C64.4203 17.4533 64.207 17.6 63.9403 17.6C63.6736 17.6 63.4603 17.5067 63.3003 17.32C63.1403 17.1067 63.127 16.8533 63.2603 16.56C63.447 16.2133 63.647 15.6267 63.8603 14.8C64.1003 13.9733 64.3136 13.04 64.5003 12C64.7136 10.96 64.8603 9.92 64.9403 8.88C65.0203 7.84 64.9936 6.93333 64.8603 6.16H49.5803C49.127 6.16 48.5936 6.18667 47.9803 6.24C47.3936 6.26667 46.847 6.37333 46.3403 6.56C45.8603 6.72 45.5136 7 45.3003 7.4C45.2736 7.45333 45.1936 7.52 45.0603 7.6C44.9536 7.68 44.8203 7.69333 44.6603 7.64C44.5003 7.58667 44.407 7.48 44.3803 7.32C44.3536 7.16 44.3403 7.04 44.3403 6.96V5.48C44.3403 5.18667 44.3803 4.93333 44.4603 4.72C44.567 4.48 44.8336 4.36 45.2603 4.36H66.9403C67.3403 4.36 67.5803 4.57333 67.6603 5C67.7403 5.50667 67.727 6.22667 67.6203 7.16C67.5403 8.09333 67.3803 9.13333 67.1403 10.28C66.9003 11.4267 66.567 12.6 66.1403 13.8C65.7136 15 65.1936 16.12 64.5803 17.16ZM39.2603 22.12V20.56C39.2603 20.4 39.2736 20.2533 39.3003 20.12C39.327 19.9867 39.407 19.8667 39.5403 19.76C39.5936 19.7333 39.6736 19.7067 39.7803 19.68C39.887 19.6533 40.1136 19.64 40.4603 19.64C40.8336 19.6133 41.407 19.6 42.1803 19.6C42.9536 19.5733 44.0336 19.56 45.4203 19.56H67.9003C68.3536 19.56 68.9003 19.5467 69.5403 19.52C70.207 19.4667 70.887 19.3867 71.5803 19.28C72.3003 19.1733 72.927 19 73.4603 18.76C73.647 18.68 73.7936 18.56 73.9003 18.4C73.9536 18.3467 74.0336 18.28 74.1403 18.2C74.247 18.12 74.367 18.1067 74.5003 18.16C74.6603 18.2133 74.7536 18.32 74.7803 18.48C74.807 18.6133 74.8203 18.72 74.8203 18.8V20.36C74.8203 20.52 74.807 20.6667 74.7803 20.8C74.7536 20.9333 74.6736 21.0533 74.5403 21.16C74.5136 21.1867 74.447 21.2133 74.3403 21.24C74.2336 21.2667 73.9936 21.2933 73.6203 21.32C73.2736 21.32 72.7003 21.3333 71.9003 21.36C71.127 21.36 70.047 21.36 68.6603 21.36H58.1803V35.72C58.1803 35.9333 58.1003 36.1467 57.9403 36.36C57.807 36.5733 57.647 36.7333 57.4603 36.84C57.1936 36.9733 56.9003 37.04 56.5803 37.04C56.2603 37.0667 55.9803 37.04 55.7403 36.96V21.36H46.1803C45.7536 21.36 45.207 21.3733 44.5403 21.4C43.8736 21.4267 43.1936 21.5067 42.5003 21.64C41.807 21.7467 41.1803 21.92 40.6203 22.16C40.4336 22.24 40.287 22.36 40.1803 22.52C40.1536 22.5733 40.087 22.64 39.9803 22.72C39.8736 22.7733 39.7403 22.7867 39.5803 22.76C39.4203 22.7067 39.327 22.6133 39.3003 22.48C39.2736 22.32 39.2603 22.2 39.2603 22.12ZM100.569 3.52C100.996 3.22667 101.516 2.86667 102.129 2.44C102.769 1.98667 103.369 1.57333 103.929 1.2C104.489 0.826665 104.863 0.613332 105.049 0.559999C105.423 0.426666 105.743 0.439999 106.009 0.599999C106.276 0.733332 106.409 0.973332 106.409 1.32V17.4H108.209C109.329 17.4 110.369 17.3333 111.329 17.2C112.289 17.04 112.983 16.7467 113.409 16.32C113.463 16.2667 113.543 16.2133 113.649 16.16C113.756 16.08 113.876 16.0667 114.009 16.12C114.143 16.1733 114.223 16.2667 114.249 16.4C114.276 16.5333 114.289 16.6267 114.289 16.68V18.2C114.289 18.5733 114.236 18.84 114.129 19C114.023 19.1333 113.823 19.2 113.529 19.2H106.409V35.76C106.409 35.9733 106.329 36.1867 106.169 36.4C106.036 36.6133 105.876 36.7733 105.689 36.88C105.423 37.0133 105.129 37.08 104.809 37.08C104.489 37.1067 104.209 37.08 103.969 37V3.64C103.943 3.61333 103.876 3.61333 103.769 3.64C103.663 3.64 103.489 3.70666 103.249 3.84C102.209 4.4 101.316 4.29333 100.569 3.52ZM90.3294 26.84C88.4894 26.84 86.8894 26.5867 85.5294 26.08C84.1694 25.5467 83.236 25.0267 82.7294 24.52C82.3827 24.1733 82.2094 23.7467 82.2094 23.24V10.24C82.1294 10.08 81.996 10.0667 81.8094 10.2C81.6494 10.3067 81.4227 10.4533 81.1294 10.64C80.8627 10.8 80.5027 10.88 80.0494 10.88C79.5427 10.88 79.1027 10.64 78.7294 10.16L83.2894 7.28C83.5294 7.12 83.8227 7.10667 84.1694 7.24C84.516 7.34667 84.6894 7.62667 84.6894 8.08V21.48C84.6894 22.04 84.556 22.4533 84.2894 22.72C84.0227 22.9867 83.716 23.1467 83.3694 23.2C83.796 23.52 84.5694 23.8533 85.6894 24.2C86.8094 24.52 88.2227 24.68 89.9294 24.68C92.1427 24.68 94.2494 24.2933 96.2494 23.52C98.2494 22.72 99.9027 21.72 101.209 20.52C101.556 20.8133 101.703 21.0933 101.649 21.36C101.596 21.6267 101.423 21.9333 101.129 22.28C99.8227 23.7467 98.196 24.88 96.2494 25.68C94.3294 26.4533 92.356 26.84 90.3294 26.84ZM154.531 3.48C154.958 3.18666 155.478 2.82667 156.091 2.4C156.731 1.94667 157.331 1.53333 157.891 1.16C158.451 0.786666 158.824 0.573332 159.011 0.519998C159.384 0.386664 159.704 0.399998 159.971 0.559999C160.238 0.693333 160.371 0.933333 160.371 1.28V21.64C160.371 21.8533 160.291 22.0667 160.131 22.28C159.998 22.4933 159.838 22.6533 159.651 22.76C159.384 22.8933 159.091 22.9733 158.771 23C158.451 23 158.171 22.96 157.931 22.88V3.6C157.904 3.57333 157.838 3.57333 157.731 3.6C157.624 3.6 157.451 3.66667 157.211 3.8C156.171 4.36 155.278 4.25333 154.531 3.48ZM131.931 15.4C132.704 15.08 133.611 14.6267 134.651 14.04C135.718 13.4267 136.864 12.6133 138.091 11.6C138.811 10.9867 139.518 10.2933 140.211 9.52C140.931 8.72 141.518 7.96 141.971 7.24C142.451 6.49333 142.664 5.89333 142.611 5.44C142.611 5.30667 142.558 5.18667 142.451 5.08C142.371 4.94667 142.264 4.78666 142.131 4.6C141.918 4.22666 142.078 3.88 142.611 3.56C143.011 3.32 143.478 3.14667 144.011 3.04C144.571 2.90667 145.051 2.89333 145.451 3C145.664 3.05333 145.784 3.17333 145.811 3.36C145.838 3.54667 145.798 3.85333 145.691 4.28C145.371 5.64 144.678 7.10667 143.611 8.68C142.544 10.2267 141.184 11.6133 139.531 12.84C138.278 13.7733 137.091 14.56 135.971 15.2C134.851 15.84 133.664 16.3467 132.411 16.72C132.144 16.8 131.918 16.76 131.731 16.6C131.571 16.4133 131.491 16.2 131.491 15.96C131.518 15.6933 131.664 15.5067 131.931 15.4ZM145.051 9.84C144.811 9.78666 144.664 9.65333 144.611 9.44C144.584 9.22667 144.624 9.02667 144.731 8.84C144.838 8.62667 145.011 8.53333 145.251 8.56C146.078 8.58667 146.971 8.73333 147.931 9C148.918 9.26667 149.864 9.62667 150.771 10.08C151.678 10.5333 152.411 11.04 152.971 11.6C153.158 11.7867 153.278 11.9733 153.331 12.16C153.411 12.32 153.464 12.4667 153.491 12.6C153.518 13.0267 153.424 13.48 153.211 13.96C152.998 14.4133 152.718 14.6533 152.371 14.68C152.131 14.7067 151.918 14.6 151.731 14.36C151.544 14.0933 151.424 13.7867 151.371 13.44C151.344 13.2533 151.171 13.0133 150.851 12.72C150.531 12.4 150.144 12.0933 149.691 11.8C149.264 11.48 148.851 11.2267 148.451 11.04C147.838 10.7467 147.264 10.5067 146.731 10.32C146.198 10.1333 145.638 9.97333 145.051 9.84ZM129.811 21.84C129.651 21.7867 129.544 21.7067 129.491 21.6C129.438 21.4933 129.424 21.3867 129.451 21.28L129.851 19.76C129.958 19.3867 130.091 19.1467 130.251 19.04C130.438 18.9067 130.664 18.8533 130.931 18.88C132.744 19.0133 134.691 19.04 136.771 18.96C138.878 18.88 141.011 18.6933 143.171 18.4C145.331 18.08 147.411 17.64 149.411 17.08C151.438 16.4933 153.264 15.76 154.891 14.88C155.184 14.72 155.438 14.72 155.651 14.88C155.864 15.0133 155.971 15.2133 155.971 15.48C155.998 15.7467 155.838 15.9867 155.491 16.2C153.838 17.2933 151.904 18.1733 149.691 18.84C147.504 19.5067 145.264 20.0267 142.971 20.4V23.24C142.971 23.4533 142.891 23.6667 142.731 23.88C142.598 24.0933 142.438 24.2533 142.251 24.36C141.984 24.4933 141.691 24.5733 141.371 24.6C141.051 24.6 140.771 24.56 140.531 24.48V20.72C137.838 21.0133 135.358 21.1333 133.091 21.08C132.291 21.0533 131.718 21.0533 131.371 21.08C131.024 21.08 130.704 21.2533 130.411 21.6C130.224 21.7867 130.024 21.8667 129.811 21.84ZM139.611 27.4L143.291 25.08C143.664 24.8667 144.011 24.8267 144.331 24.96C144.651 25.0933 144.811 25.3867 144.811 25.84V29H157.731V26.64C157.704 26.56 157.651 26.52 157.571 26.52C157.491 26.4933 157.344 26.5467 157.131 26.68C156.944 26.7867 156.784 26.8667 156.651 26.92C156.518 26.9733 156.344 27 156.131 27C155.758 27 155.371 26.7733 154.971 26.32L158.651 24.08C159.024 23.8667 159.371 23.8267 159.691 23.96C160.011 24.0933 160.171 24.3867 160.171 24.84V36.8C160.171 37.2267 159.971 37.56 159.571 37.8C159.198 38.04 158.771 38.1867 158.291 38.24C157.438 38.3467 156.278 38.4 154.811 38.4C153.371 38.4267 151.784 38.24 150.051 37.84C148.318 37.4667 146.571 36.7467 144.811 35.68V36.84C144.811 37.0533 144.731 37.2667 144.571 37.48C144.438 37.6933 144.278 37.8533 144.091 37.96C143.824 38.0933 143.531 38.16 143.211 38.16C142.891 38.1867 142.611 38.16 142.371 38.08V27.64C142.291 27.5333 142.091 27.5733 141.771 27.76C141.584 27.8667 141.424 27.9467 141.291 28C141.158 28.0533 140.984 28.08 140.771 28.08C140.398 28.08 140.011 27.8533 139.611 27.4ZM144.811 34.36C146.011 35.0267 147.264 35.52 148.571 35.84C149.878 36.1867 151.131 36.4 152.331 36.48C153.531 36.56 154.598 36.56 155.531 36.48C156.491 36.4 157.224 36.2667 157.731 36.08V30.76H144.811V34.36ZM200.08 1.32V36.16C200.08 36.3733 200 36.5867 199.84 36.8C199.707 37.0133 199.547 37.1733 199.36 37.28C199.093 37.4133 198.8 37.48 198.48 37.48C198.16 37.5067 197.88 37.48 197.64 37.4V3.64C197.613 3.61333 197.547 3.61333 197.44 3.64C197.333 3.64 197.16 3.70666 196.92 3.84C195.88 4.4 194.987 4.29333 194.24 3.52C194.667 3.22667 195.187 2.86667 195.8 2.44C196.44 1.98667 197.04 1.57333 197.6 1.2C198.16 0.826665 198.533 0.613332 198.72 0.559999C199.093 0.426666 199.413 0.439999 199.68 0.599999C199.947 0.733332 200.08 0.973332 200.08 1.32ZM183.76 19.04V17.36C183.76 17.0933 183.84 16.9067 184 16.8C184.08 16.7467 184.173 16.7067 184.28 16.68C184.413 16.6533 184.653 16.64 185 16.64H190.44V5.92C190.413 5.89333 190.347 5.89333 190.24 5.92C190.133 5.92 189.96 5.98667 189.72 6.12C188.68 6.68 187.787 6.57333 187.04 5.8C187.467 5.50667 187.987 5.14667 188.6 4.72C189.24 4.26666 189.84 3.85333 190.4 3.48C190.96 3.10666 191.333 2.89333 191.52 2.84C191.893 2.70667 192.213 2.72 192.48 2.88C192.747 3.01333 192.88 3.25333 192.88 3.6V34.04C192.88 34.2533 192.8 34.4667 192.64 34.68C192.507 34.8933 192.347 35.0533 192.16 35.16C191.893 35.2933 191.6 35.36 191.28 35.36C190.96 35.3867 190.68 35.36 190.44 35.28V18.4H187.16C186.6 18.4 186.093 18.4533 185.64 18.56C185.187 18.6667 184.813 18.9467 184.52 19.4C184.44 19.5067 184.293 19.56 184.08 19.56C183.867 19.5333 183.76 19.36 183.76 19.04ZM169.36 28.92C170.88 27.96 172.347 26.7867 173.76 25.4C175.2 23.9867 176.507 22.44 177.68 20.76C178.88 19.0533 179.88 17.2933 180.68 15.48C181.48 13.64 182.027 11.8267 182.32 10.04H175.2C174.507 10.04 173.773 10.0933 173 10.2C172.227 10.3067 171.693 10.6667 171.4 11.28C171.373 11.3333 171.293 11.4 171.16 11.48C171.053 11.56 170.92 11.5733 170.76 11.52C170.6 11.4667 170.507 11.36 170.48 11.2C170.453 11.04 170.44 10.92 170.44 10.84V9.36C170.44 9.06667 170.48 8.81333 170.56 8.6C170.667 8.36 170.933 8.24 171.36 8.24H184.68C185.027 8.24 185.24 8.34667 185.32 8.56C185.4 8.77333 185.413 9.02667 185.36 9.32C184.96 11.32 184.28 13.36 183.32 15.44C182.36 17.4933 181.2 19.48 179.84 21.4C178.48 23.2933 176.973 25.0133 175.32 26.56C173.667 28.08 171.96 29.32 170.2 30.28C169.853 30.4667 169.56 30.48 169.32 30.32C169.08 30.16 168.947 29.9333 168.92 29.64C168.92 29.3467 169.067 29.1067 169.36 28.92ZM245.962 27.72V3.64C245.935 3.61333 245.868 3.61333 245.762 3.64C245.655 3.64 245.482 3.70666 245.242 3.84C244.762 4.08 244.322 4.2 243.922 4.2C243.415 4.2 242.962 3.97333 242.562 3.52L247.042 0.559999C247.202 0.453333 247.362 0.399999 247.522 0.399999C247.735 0.399999 247.935 0.479999 248.122 0.639998C248.308 0.773332 248.402 0.999999 248.402 1.32V14.96H249.762C250.882 14.96 251.922 14.8933 252.882 14.76C253.842 14.6 254.535 14.3067 254.962 13.88C255.015 13.8267 255.095 13.7733 255.202 13.72C255.308 13.64 255.428 13.6267 255.562 13.68C255.695 13.7333 255.775 13.8267 255.802 13.96C255.828 14.0933 255.842 14.1867 255.842 14.24V15.72C255.842 16.0933 255.788 16.36 255.682 16.52C255.575 16.6533 255.375 16.72 255.082 16.72H248.402V26.48C248.402 26.6933 248.322 26.9067 248.162 27.12C248.028 27.3333 247.868 27.4933 247.682 27.6C247.415 27.7333 247.122 27.8133 246.802 27.84C246.482 27.84 246.202 27.8 245.962 27.72ZM220.682 9.68L224.562 7.04C224.695 6.96 224.855 6.88 225.042 6.8C225.228 6.69333 225.482 6.64 225.802 6.64H237.882C238.255 6.64 238.522 6.73333 238.682 6.92C238.842 7.08 238.922 7.28 238.922 7.52L238.962 19.16C238.962 19.56 238.775 19.9067 238.402 20.2C238.055 20.4933 237.402 20.6933 236.442 20.8C235.935 20.8533 235.255 20.8667 234.402 20.84C233.575 20.8133 232.655 20.72 231.642 20.56C230.655 20.3733 229.655 20.08 228.642 19.68C227.655 19.28 226.762 18.7467 225.962 18.08V19.44C225.962 19.6533 225.882 19.8667 225.722 20.08C225.562 20.2933 225.402 20.44 225.242 20.52C224.975 20.6533 224.682 20.7333 224.362 20.76C224.042 20.76 223.762 20.72 223.522 20.64V9.84C223.415 9.78666 223.162 9.86666 222.762 10.08C222.388 10.2667 222.015 10.3467 221.642 10.32C221.268 10.2667 220.948 10.0533 220.682 9.68ZM225.962 16.84C226.735 17.4 227.628 17.8533 228.642 18.2C229.655 18.5467 230.668 18.7867 231.682 18.92C232.722 19.0533 233.668 19.1067 234.522 19.08C235.375 19.0267 236.028 18.9067 236.482 18.72V8.44H225.962V16.84ZM228.282 26.24C228.122 25.9733 228.095 25.7333 228.202 25.52C228.308 25.3067 228.482 25.1733 228.722 25.12C228.988 25.04 229.215 25.12 229.402 25.36C230.895 27.0667 232.615 28.6267 234.562 30.04C236.535 31.4267 238.628 32.48 240.842 33.2C243.055 33.92 245.268 34.1333 247.482 33.84C247.748 33.7867 248.082 33.6133 248.482 33.32C248.882 33.0267 249.215 32.8267 249.482 32.72C249.855 32.56 250.202 32.6 250.522 32.84C250.788 33.0533 251.082 33.3867 251.402 33.84C251.748 34.32 251.935 34.7067 251.962 35C251.988 35.24 251.922 35.4 251.762 35.48C251.628 35.5867 251.428 35.6667 251.162 35.72C249.055 36.1467 246.922 36.24 244.762 36C242.602 35.7867 240.495 35.2667 238.442 34.44C236.415 33.64 234.522 32.5467 232.762 31.16C231.028 29.7733 229.535 28.1333 228.282 26.24ZM262.991 8.8V7.6C262.991 7.17333 263.071 6.88 263.231 6.72C263.417 6.53333 263.644 6.44 263.911 6.44H281.031C281.484 6.44 282.031 6.42666 282.671 6.4C283.337 6.34667 284.017 6.26667 284.711 6.16C285.431 6.05333 286.057 5.88 286.591 5.64C286.777 5.56 286.924 5.44 287.031 5.28C287.084 5.22667 287.164 5.17333 287.271 5.12C287.377 5.04 287.497 5.02667 287.631 5.08C287.791 5.13333 287.884 5.22667 287.911 5.36C287.937 5.49333 287.951 5.6 287.951 5.68V7.24C287.951 7.4 287.937 7.54667 287.911 7.68C287.884 7.81333 287.804 7.93333 287.671 8.04C287.644 8.06666 287.577 8.09333 287.471 8.12C287.364 8.14667 287.124 8.17333 286.751 8.2C286.404 8.2 285.831 8.21333 285.031 8.24C284.257 8.24 283.177 8.24 281.791 8.24H267.551C267.764 10.1867 268.404 11.9467 269.471 13.52C270.564 15.0667 272.111 16.3467 274.111 17.36C275.257 17.92 276.484 18.3467 277.791 18.64C279.097 18.9067 280.391 19.0667 281.671 19.12C282.951 19.1733 284.111 19.1733 285.151 19.12C286.191 19.04 287.004 18.9467 287.591 18.84C287.937 18.76 288.177 18.84 288.311 19.08C288.471 19.32 288.511 19.5867 288.431 19.88C288.377 20.1467 288.191 20.32 287.871 20.4C286.484 20.72 284.897 20.92 283.111 21C281.324 21.08 279.511 20.9733 277.671 20.68C275.857 20.3867 274.204 19.88 272.711 19.16C270.604 18.12 268.844 16.7467 267.431 15.04C266.017 13.3067 265.071 11.04 264.591 8.24C264.404 8.26666 264.284 8.33333 264.231 8.44C264.204 8.52 264.124 8.70667 263.991 9C263.884 9.29333 263.711 9.44 263.471 9.44C263.151 9.44 262.991 9.22667 262.991 8.8ZM258.751 32.24V30.68C258.751 30.52 258.764 30.3733 258.791 30.24C258.817 30.1067 258.897 29.9867 259.031 29.88C259.084 29.8533 259.164 29.8267 259.271 29.8C259.377 29.7733 259.604 29.76 259.951 29.76C260.324 29.7333 260.897 29.72 261.671 29.72C262.444 29.6933 263.524 29.68 264.911 29.68H287.391C287.844 29.68 288.391 29.6667 289.031 29.64C289.697 29.5867 290.377 29.5067 291.071 29.4C291.791 29.2933 292.417 29.12 292.951 28.88C293.137 28.8 293.284 28.68 293.391 28.52C293.444 28.4667 293.524 28.4 293.631 28.32C293.737 28.24 293.857 28.2267 293.991 28.28C294.151 28.3333 294.244 28.44 294.271 28.6C294.297 28.7333 294.311 28.84 294.311 28.92V30.48C294.311 30.64 294.297 30.7867 294.271 30.92C294.244 31.0533 294.164 31.1733 294.031 31.28C294.004 31.3067 293.937 31.3333 293.831 31.36C293.724 31.3867 293.484 31.4133 293.111 31.44C292.764 31.44 292.191 31.4533 291.391 31.48C290.617 31.48 289.537 31.48 288.151 31.48H265.671C265.244 31.48 264.697 31.4933 264.031 31.52C263.364 31.5467 262.684 31.6267 261.991 31.76C261.297 31.8667 260.671 32.04 260.111 32.28C259.924 32.36 259.777 32.48 259.671 32.64C259.644 32.6933 259.577 32.7467 259.471 32.8C259.364 32.88 259.231 32.9067 259.071 32.88C258.911 32.8267 258.817 32.72 258.791 32.56C258.764 32.4267 258.751 32.32 258.751 32.24ZM305.34 11.04V5.28C305.233 5.22667 304.98 5.30667 304.58 5.52C304.206 5.70667 303.833 5.78667 303.46 5.76C303.086 5.70667 302.766 5.49333 302.5 5.12L306.54 2.52C306.753 2.38666 307.006 2.36 307.3 2.44C307.62 2.52 307.78 2.76 307.78 3.16V9.92C307.78 10.3467 307.646 10.68 307.38 10.92C307.113 11.16 306.78 11.28 306.38 11.28C307.206 11.8667 308.286 12.4 309.62 12.88C310.953 13.3333 312.406 13.6667 313.98 13.88C315.58 14.0933 317.206 14.1333 318.86 14C320.54 13.84 322.126 13.4533 323.62 12.84C323.913 12.7067 324.206 12.5333 324.5 12.32C324.793 12.08 325.073 11.8267 325.34 11.56C325.446 11.4533 325.553 11.3867 325.66 11.36C325.766 11.3067 325.94 11.3067 326.18 11.36C326.526 11.44 326.873 11.6 327.22 11.84C327.593 12.0533 327.886 12.2933 328.1 12.56C328.233 12.6933 328.26 12.8533 328.18 13.04C328.126 13.2 327.9 13.4 327.5 13.64C326.193 14.44 324.606 15.04 322.74 15.44C320.873 15.84 318.926 16.0133 316.9 15.96C315.726 15.9067 314.446 15.76 313.06 15.52C311.673 15.2533 310.34 14.8667 309.06 14.36C307.806 13.8267 306.74 13.16 305.86 12.36C305.646 12.1467 305.5 11.9467 305.42 11.76C305.366 11.5467 305.34 11.3067 305.34 11.04ZM297.62 23.16V21.6C297.62 21.44 297.633 21.2933 297.66 21.16C297.686 21.0267 297.766 20.9067 297.9 20.8C297.953 20.7733 298.033 20.7467 298.14 20.72C298.246 20.6933 298.473 20.68 298.82 20.68C299.193 20.6533 299.766 20.64 300.54 20.64C301.313 20.6133 302.393 20.6 303.78 20.6H326.26C326.713 20.6 327.26 20.5867 327.9 20.56C328.566 20.5067 329.246 20.4267 329.94 20.32C330.66 20.2133 331.286 20.04 331.82 19.8C332.006 19.72 332.153 19.6 332.26 19.44C332.313 19.3867 332.393 19.32 332.5 19.24C332.606 19.16 332.726 19.1467 332.86 19.2C333.02 19.2533 333.113 19.36 333.14 19.52C333.166 19.6533 333.18 19.76 333.18 19.84V21.4C333.18 21.56 333.166 21.7067 333.14 21.84C333.113 21.9733 333.033 22.0933 332.9 22.2C332.873 22.2267 332.806 22.2533 332.7 22.28C332.593 22.3067 332.353 22.3333 331.98 22.36C331.633 22.36 331.06 22.3733 330.26 22.4C329.486 22.4 328.406 22.4 327.02 22.4H304.54C304.113 22.4 303.566 22.4133 302.9 22.44C302.233 22.4667 301.553 22.5467 300.86 22.68C300.166 22.7867 299.54 22.96 298.98 23.2C298.793 23.28 298.646 23.4 298.54 23.56C298.513 23.6133 298.446 23.68 298.34 23.76C298.233 23.8133 298.1 23.8267 297.94 23.8C297.78 23.7467 297.686 23.6533 297.66 23.52C297.633 23.36 297.62 23.24 297.62 23.16ZM304.38 26.88C304.22 26.5867 304.193 26.3333 304.3 26.12C304.406 25.9067 304.58 25.7733 304.82 25.72C305.06 25.6667 305.273 25.76 305.46 26C306.58 27.36 307.873 28.5867 309.34 29.68C310.833 30.7467 312.42 31.6267 314.1 32.32C315.806 33.04 317.526 33.5467 319.26 33.84C321.02 34.1333 322.713 34.16 324.34 33.92C324.606 33.8667 324.94 33.6933 325.34 33.4C325.74 33.1067 326.073 32.9067 326.34 32.8C326.713 32.64 327.06 32.68 327.38 32.92C327.646 33.1333 327.94 33.4667 328.26 33.92C328.606 34.3733 328.793 34.7467 328.82 35.04C328.846 35.28 328.78 35.44 328.62 35.52C328.486 35.6267 328.286 35.7067 328.02 35.76C325.966 36.1867 323.82 36.3333 321.58 36.2C319.34 36.0667 317.14 35.6267 314.98 34.88C312.846 34.16 310.86 33.1333 309.02 31.8C307.18 30.4667 305.633 28.8267 304.38 26.88ZM69.8211 66.76L73.7011 64.12C73.8344 64.04 74.0078 63.96 74.2211 63.88C74.4344 63.7733 74.7278 63.72 75.1011 63.72H91.7811C92.1544 63.72 92.4078 63.8267 92.5411 64.04C92.7011 64.2267 92.7811 64.44 92.7811 64.68L92.8211 76.72C92.8211 77.2 92.6344 77.5467 92.2611 77.76C91.7811 78.0267 91.0478 78.24 90.0611 78.4C89.0744 78.56 87.9278 78.6267 86.6211 78.6C85.3411 78.5733 83.9944 78.44 82.5811 78.2C81.1944 77.96 79.8478 77.5867 78.5411 77.08C77.2611 76.5733 76.1144 75.9067 75.1011 75.08V76.76C75.1011 76.9733 75.0211 77.1867 74.8611 77.4C74.7278 77.5867 74.5678 77.7333 74.3811 77.84C74.1144 77.9733 73.8211 78.0533 73.5011 78.08C73.1811 78.08 72.9011 78.04 72.6611 77.96V66.92C72.5544 66.8667 72.3011 66.9467 71.9011 67.16C71.5278 67.3467 71.1544 67.4267 70.7811 67.4C70.4078 67.3467 70.0878 67.1333 69.8211 66.76ZM75.1011 73.84C76.0611 74.5333 77.2611 75.1067 78.7011 75.56C80.1411 76.0133 81.6211 76.3333 83.1411 76.52C84.6611 76.7067 86.0744 76.7733 87.3811 76.72C88.6878 76.64 89.6878 76.4267 90.3811 76.08V65.52H75.1011V73.84ZM100.461 86.24C100.621 86.2933 100.714 86.4 100.741 86.56C100.768 86.6933 100.781 86.8 100.781 86.88V88.44C100.781 88.6 100.768 88.7467 100.741 88.88C100.714 89.0133 100.634 89.1333 100.501 89.24C100.474 89.2667 100.408 89.2933 100.301 89.32C100.194 89.3467 99.9544 89.3733 99.5811 89.4C99.2344 89.4 98.6611 89.4133 97.8611 89.44C97.0878 89.44 96.0078 89.44 94.6211 89.44H72.1411C71.7144 89.44 71.1678 89.4533 70.5011 89.48C69.8344 89.5067 69.1544 89.5867 68.4611 89.72C67.7678 89.8267 67.1411 90 66.5811 90.24C66.3944 90.32 66.2478 90.44 66.1411 90.6C66.1144 90.6533 66.0478 90.7067 65.9411 90.76C65.8344 90.84 65.7011 90.8667 65.5411 90.84C65.3811 90.7867 65.2878 90.68 65.2611 90.52C65.2344 90.3867 65.2211 90.28 65.2211 90.2V88.64C65.2211 88.48 65.2344 88.3333 65.2611 88.2C65.2878 88.0667 65.3678 87.9467 65.5011 87.84C65.5544 87.8133 65.6344 87.7867 65.7411 87.76C65.8478 87.7333 66.0744 87.72 66.4211 87.72C66.7944 87.6933 67.3678 87.68 68.1411 87.68C68.9144 87.6533 69.9944 87.64 71.3811 87.64H82.0611V81.84C81.9811 81.7333 81.8211 81.7733 81.5811 81.96C81.3678 82.12 81.0878 82.2133 80.7411 82.24C80.2078 82.2933 79.8211 82.08 79.5811 81.6C79.9544 81.3333 80.3811 81.0533 80.8611 80.76C81.3678 80.44 81.8344 80.16 82.2611 79.92C82.6878 79.68 82.9811 79.52 83.1411 79.44C83.4344 79.3067 83.7278 79.3067 84.0211 79.44C84.3144 79.5467 84.4611 79.7867 84.4611 80.16V87.64H93.8611C94.3144 87.64 94.8611 87.6267 95.5011 87.6C96.1678 87.5467 96.8478 87.4667 97.5411 87.36C98.2611 87.2533 98.8878 87.08 99.4211 86.84C99.6078 86.76 99.7544 86.64 99.8611 86.48C99.9144 86.4267 99.9944 86.36 100.101 86.28C100.208 86.2 100.328 86.1867 100.461 86.24ZM126.37 61.56C126.797 61.2667 127.317 60.9067 127.93 60.48C128.57 60.0267 129.17 59.6133 129.73 59.24C130.29 58.8667 130.663 58.6533 130.85 58.6C131.223 58.4667 131.543 58.48 131.81 58.64C132.077 58.7733 132.21 59.0133 132.21 59.36V75.32H133.49C134.743 75.32 135.903 75.24 136.97 75.08C138.063 74.8933 138.837 74.5733 139.29 74.12C139.37 74.0667 139.463 74 139.57 73.92C139.677 73.84 139.81 73.8267 139.97 73.88C140.13 73.96 140.223 74.08 140.25 74.24C140.277 74.3733 140.29 74.4667 140.29 74.52V76.04C140.29 76.4667 140.223 76.76 140.09 76.92C139.957 77.08 139.743 77.16 139.45 77.16L132.21 77.08V93.8C132.21 94.0133 132.13 94.2267 131.97 94.44C131.837 94.6533 131.677 94.8133 131.49 94.92C131.223 95.0533 130.93 95.12 130.61 95.12C130.29 95.1467 130.01 95.12 129.77 95.04V61.68C129.743 61.6533 129.677 61.6533 129.57 61.68C129.463 61.68 129.29 61.7467 129.05 61.88C128.01 62.44 127.117 62.3333 126.37 61.56ZM120.69 84.32C119.997 84.4267 119.023 84.4533 117.77 84.4C116.543 84.32 115.223 84.0667 113.81 83.64C112.423 83.2133 111.09 82.5467 109.81 81.64V82.96C109.81 83.1733 109.73 83.3867 109.57 83.6C109.41 83.8133 109.25 83.96 109.09 84.04C108.823 84.1733 108.53 84.2533 108.21 84.28C107.89 84.28 107.61 84.24 107.37 84.16V68.4C107.343 68.24 107.263 68.2133 107.13 68.32C106.997 68.4 106.823 68.5067 106.61 68.64C106.423 68.7733 106.21 68.84 105.97 68.84C105.57 68.84 105.17 68.6267 104.77 68.2L108.29 65.84C108.637 65.6267 108.97 65.6 109.29 65.76C109.637 65.92 109.81 66.2 109.81 66.6V72.04H120.73V67C120.703 66.84 120.623 66.8133 120.49 66.92C120.357 67 120.183 67.1067 119.97 67.24C119.783 67.3733 119.57 67.44 119.33 67.44C118.93 67.44 118.53 67.2267 118.13 66.8L121.65 64.44C121.997 64.2267 122.33 64.2 122.65 64.36C122.997 64.52 123.17 64.8 123.17 65.2V82.68C123.17 83.08 122.997 83.4267 122.65 83.72C122.303 83.9867 121.65 84.1867 120.69 84.32ZM109.81 80.32C110.903 81.0933 112.143 81.6533 113.53 82C114.917 82.3467 116.263 82.5333 117.57 82.56C118.877 82.56 119.93 82.44 120.73 82.2V73.84H109.81V80.32ZM172.879 59.4V77.36C172.879 77.5733 172.799 77.7867 172.639 78C172.506 78.2133 172.346 78.3733 172.159 78.48C171.893 78.6133 171.599 78.6933 171.279 78.72C170.959 78.72 170.679 78.68 170.439 78.6V61.72C170.413 61.6933 170.346 61.6933 170.239 61.72C170.133 61.72 169.959 61.7867 169.719 61.92C168.679 62.48 167.786 62.3733 167.039 61.6C167.466 61.3067 167.986 60.9467 168.599 60.52C169.239 60.0667 169.839 59.6533 170.399 59.28C170.959 58.9067 171.333 58.6933 171.519 58.64C171.893 58.5067 172.213 58.52 172.479 58.68C172.746 58.8133 172.879 59.0533 172.879 59.4ZM146.199 69.64C146.199 68.28 146.599 67.0267 147.399 65.88C148.199 64.7333 149.279 63.8267 150.639 63.16C151.999 62.4933 153.506 62.2 155.159 62.28C156.173 62.3067 157.039 62.44 157.759 62.68C158.506 62.92 159.079 63.16 159.479 63.4C159.879 63.64 160.093 63.8 160.119 63.88L159.719 64.36C159.026 64.0667 158.346 63.8667 157.679 63.76C157.013 63.6533 156.373 63.6 155.759 63.6C154.426 63.5733 153.239 63.8267 152.199 64.36C151.186 64.8933 150.386 65.6133 149.799 66.52C149.213 67.4267 148.919 68.48 148.919 69.68C148.919 70.6933 149.173 71.6267 149.679 72.48C150.186 73.3067 150.866 73.9733 151.719 74.48C152.573 74.9867 153.533 75.2533 154.599 75.28C155.639 75.28 156.546 75.0667 157.319 74.64C158.119 74.1867 158.746 73.6 159.199 72.88C159.653 72.16 159.879 71.4133 159.879 70.64C159.879 69.7067 159.693 69 159.319 68.52C158.946 68.0133 158.546 67.6933 158.119 67.56C157.959 67.5067 157.826 67.5067 157.719 67.56C157.613 67.5867 157.479 67.5867 157.319 67.56C156.973 67.5067 156.826 67.28 156.879 66.88C156.959 66.48 157.173 66.1067 157.519 65.76C157.813 65.4667 158.106 65.2933 158.399 65.24C158.719 65.1867 159.026 65.2 159.319 65.28C160.119 65.4933 160.866 66.04 161.559 66.92C162.253 67.8 162.599 68.88 162.599 70.16C162.599 71.6 162.213 72.8267 161.439 73.84C160.666 74.8267 159.666 75.5867 158.439 76.12C157.239 76.6267 155.946 76.88 154.559 76.88C153.226 76.88 151.906 76.6133 150.599 76.08C149.319 75.5467 148.266 74.7467 147.439 73.68C146.613 72.5867 146.199 71.24 146.199 69.64ZM153.279 88.36V87.12C153.279 86.5067 153.559 86.2 154.119 86.2H169.399C169.773 85.8267 170.066 85.2533 170.279 84.48C170.493 83.68 170.573 83.0267 170.519 82.52H157.639C156.919 82.52 156.359 82.56 155.959 82.64C155.586 82.6933 155.253 82.8267 154.959 83.04C154.853 83.12 154.759 83.2133 154.679 83.32C154.626 83.4 154.573 83.4667 154.519 83.52C154.386 83.7067 154.213 83.76 153.999 83.68C153.893 83.6267 153.813 83.56 153.759 83.48C153.733 83.3733 153.719 83.2933 153.719 83.24V81.6C153.719 81.4667 153.733 81.3333 153.759 81.2C153.786 81.0667 153.853 80.96 153.959 80.88C154.013 80.8267 154.106 80.8 154.239 80.8C154.399 80.7733 154.746 80.76 155.279 80.76C155.839 80.7333 156.746 80.72 157.999 80.72H172.519C172.999 80.72 173.266 80.9467 173.319 81.4C173.399 81.8533 173.346 82.4133 173.159 83.08C172.973 83.72 172.733 84.3333 172.439 84.92C172.146 85.5067 171.893 85.9333 171.679 86.2H172.159C172.559 86.2 172.853 86.3333 173.039 86.6C173.226 86.84 173.319 87.1467 173.319 87.52V88H157.639C157.933 89.0933 158.733 90.0933 160.039 91C161.373 91.9067 163.013 92.5067 164.959 92.8C166.799 93.0667 168.546 93.1467 170.199 93.04C171.879 92.96 173.386 92.76 174.719 92.44C175.013 92.36 175.226 92.4133 175.359 92.6C175.519 92.7867 175.586 92.9867 175.559 93.2C175.533 93.44 175.386 93.6 175.119 93.68C174.186 94 173.053 94.2533 171.719 94.44C170.386 94.6267 169.013 94.7067 167.599 94.68C166.213 94.68 164.919 94.5733 163.719 94.36C161.719 93.9867 159.893 93.28 158.239 92.24C156.586 91.2267 155.413 89.8267 154.719 88.04C154.639 88.04 154.559 88.0667 154.479 88.12C154.426 88.1467 154.359 88.2667 154.279 88.48C154.173 88.7733 153.999 88.92 153.759 88.92C153.439 88.92 153.279 88.7333 153.279 88.36ZM222.481 81.56V74.88H218.241C217.681 74.88 217.174 74.92 216.721 75C216.267 75.0533 215.894 75.3067 215.601 75.76C215.521 75.8667 215.374 75.92 215.161 75.92C214.947 75.8933 214.841 75.72 214.841 75.4V73.8C214.841 73.5333 214.921 73.3467 215.081 73.24C215.161 73.1867 215.254 73.1467 215.361 73.12C215.494 73.0933 215.734 73.08 216.081 73.08H222.481V68.4H218.241C217.681 68.4 217.174 68.44 216.721 68.52C216.267 68.5733 215.894 68.8267 215.601 69.28C215.521 69.3867 215.374 69.44 215.161 69.44C214.947 69.4133 214.841 69.24 214.841 68.92V67.32C214.841 67.0533 214.921 66.8667 215.081 66.76C215.161 66.7067 215.254 66.6667 215.361 66.64C215.494 66.6133 215.734 66.6 216.081 66.6H222.481V61.64C222.454 61.6133 222.387 61.6133 222.281 61.64C222.174 61.64 222.001 61.7067 221.761 61.84C220.721 62.4 219.827 62.2933 219.081 61.52C219.507 61.2267 220.027 60.8667 220.641 60.44C221.281 59.9867 221.881 59.5733 222.441 59.2C223.001 58.8267 223.374 58.6133 223.561 58.56C223.934 58.4267 224.254 58.44 224.521 58.6C224.787 58.7333 224.921 58.9733 224.921 59.32V80.32C224.921 80.5333 224.841 80.7467 224.681 80.96C224.547 81.1733 224.387 81.3333 224.201 81.44C223.934 81.5733 223.641 81.6533 223.321 81.68C223.001 81.68 222.721 81.64 222.481 81.56ZM195.681 66.92L199.561 64.28C199.694 64.2 199.854 64.12 200.041 64.04C200.227 63.9333 200.481 63.88 200.801 63.88H212.721C213.094 63.88 213.347 63.9733 213.481 64.16C213.641 64.32 213.721 64.52 213.721 64.76L213.761 76.2C213.761 76.6 213.587 76.9467 213.241 77.24C212.894 77.5333 212.241 77.7333 211.281 77.84C210.774 77.8933 210.107 77.9067 209.281 77.88C208.454 77.8533 207.547 77.76 206.561 77.6C205.601 77.4133 204.627 77.12 203.641 76.72C202.654 76.32 201.761 75.7867 200.961 75.12V76.48C200.961 76.6933 200.881 76.9067 200.721 77.12C200.561 77.3333 200.401 77.48 200.241 77.56C199.974 77.6933 199.681 77.7733 199.361 77.8C199.041 77.8 198.761 77.76 198.521 77.68V67.08C198.414 67.0267 198.161 67.1067 197.761 67.32C197.387 67.5067 197.014 67.5867 196.641 67.56C196.267 67.5067 195.947 67.2933 195.681 66.92ZM200.961 73.88C201.734 74.44 202.614 74.8933 203.601 75.24C204.614 75.5867 205.614 75.8267 206.601 75.96C207.614 76.0933 208.534 76.1467 209.361 76.12C210.214 76.0667 210.867 75.9467 211.321 75.76V65.68H200.961V73.88ZM207.881 88.16C207.881 86.88 208.254 85.7067 209.001 84.64C209.747 83.5733 210.747 82.72 212.001 82.08C213.281 81.4133 214.694 81.0667 216.241 81.04C217.654 81.0133 218.814 81.2 219.721 81.6C220.654 81.9733 221.227 82.3067 221.441 82.6L220.961 83.08C219.814 82.6267 218.641 82.4133 217.441 82.44C216.241 82.44 215.121 82.6533 214.081 83.08C213.067 83.5067 212.241 84.1333 211.601 84.96C210.961 85.7867 210.641 86.8133 210.641 88.04C210.641 89.0533 210.881 89.9867 211.361 90.84C211.867 91.6933 212.547 92.3733 213.401 92.88C214.281 93.3867 215.281 93.64 216.401 93.64C217.974 93.64 219.281 93.1733 220.321 92.24C221.361 91.3067 221.881 90.1733 221.881 88.84C221.881 88.3067 221.761 87.8 221.521 87.32C221.281 86.8133 220.974 86.4667 220.601 86.28C220.467 86.2 220.321 86.1867 220.161 86.24C220.027 86.2667 219.854 86.2533 219.641 86.2C219.507 86.1467 219.401 86.04 219.321 85.88C219.241 85.6933 219.254 85.4667 219.361 85.2C219.574 84.7467 219.894 84.4267 220.321 84.24C220.774 84.0267 221.174 83.9467 221.521 84C221.921 84.0533 222.361 84.2667 222.841 84.64C223.321 84.9867 223.734 85.48 224.081 86.12C224.427 86.7333 224.601 87.4933 224.601 88.4C224.601 89.8667 224.201 91.1067 223.401 92.12C222.601 93.1333 221.574 93.8933 220.321 94.4C219.067 94.9333 217.747 95.2 216.361 95.2C214.947 95.2 213.587 94.9067 212.281 94.32C211.001 93.76 209.947 92.9467 209.121 91.88C208.294 90.84 207.881 89.6 207.881 88.16ZM255.55 61.56C255.977 61.2667 256.497 60.9067 257.11 60.48C257.75 60.0267 258.35 59.6133 258.91 59.24C259.47 58.8667 259.843 58.6533 260.03 58.6C260.403 58.4667 260.723 58.48 260.99 58.64C261.257 58.7733 261.39 59.0133 261.39 59.36V71.72H263.07C264.03 71.72 264.977 71.6533 265.91 71.52C266.87 71.3867 267.523 71.1467 267.87 70.8C267.923 70.7467 268.003 70.6933 268.11 70.64C268.217 70.56 268.363 70.5467 268.55 70.6C268.683 70.6533 268.763 70.7467 268.79 70.88C268.817 71.0133 268.83 71.1067 268.83 71.16V72.56C268.83 73.2 268.577 73.52 268.07 73.52L261.39 73.48V80.32C261.39 80.5333 261.31 80.7467 261.15 80.96C261.017 81.1733 260.857 81.3333 260.67 81.44C260.403 81.5733 260.11 81.6533 259.79 81.68C259.47 81.68 259.19 81.64 258.95 81.56V61.68C258.923 61.6533 258.857 61.6533 258.75 61.68C258.643 61.68 258.47 61.7467 258.23 61.88C257.19 62.44 256.297 62.3333 255.55 61.56ZM243.11 61.12C243.137 60.9067 243.203 60.6533 243.31 60.36C243.443 60.04 243.563 59.7733 243.67 59.56C243.91 59.2667 244.11 59.12 244.27 59.12C244.457 59.12 244.697 59.2667 244.99 59.56C245.923 60.4933 246.923 61.2933 247.99 61.96C249.083 62.6267 250.31 63.2267 251.67 63.76C251.643 63.9467 251.563 64.0933 251.43 64.2C251.323 64.28 251.083 64.3067 250.71 64.28C250.097 64.2 249.35 64.0533 248.47 63.84C247.617 63.6267 246.75 63.3733 245.87 63.08C245.017 62.76 244.257 62.44 243.59 62.12C243.19 61.96 243.03 61.6267 243.11 61.12ZM244.67 81.12C243.363 81.12 242.123 80.88 240.95 80.4C239.803 79.8933 238.857 79.1733 238.11 78.24C237.39 77.3067 237.03 76.1867 237.03 74.88C237.03 73.68 237.417 72.5733 238.19 71.56C238.963 70.5467 240.003 69.7333 241.31 69.12C242.617 68.5067 244.07 68.2 245.67 68.2C246.87 68.2 248.07 68.3733 249.27 68.72L249.55 68.36C248.723 67.9333 247.817 67.6 246.83 67.36C245.843 67.12 244.883 66.9733 243.95 66.92C241.737 66.7867 239.763 66.9067 238.03 67.28C236.323 67.6533 235.003 68.0267 234.07 68.4C233.803 68.5067 233.577 68.4933 233.39 68.36C233.23 68.2 233.15 68.0133 233.15 67.8C233.15 67.56 233.27 67.3733 233.51 67.24C233.99 66.9733 234.737 66.6667 235.75 66.32C236.763 65.9467 237.963 65.6267 239.35 65.36C240.737 65.0933 242.243 65 243.87 65.08C244.803 65.1067 245.803 65.2267 246.87 65.44C247.963 65.6267 249.003 65.8933 249.99 66.24C250.977 66.5867 251.817 67.0133 252.51 67.52C252.75 67.68 252.79 67.8933 252.63 68.16C252.497 68.4 252.323 68.6533 252.11 68.92C251.737 69.4267 251.403 69.7467 251.11 69.88C250.817 69.9867 250.537 70 250.27 69.92C248.883 69.4933 247.55 69.32 246.27 69.4C245.017 69.48 243.897 69.76 242.91 70.24C241.95 70.72 241.177 71.36 240.59 72.16C240.03 72.96 239.75 73.8667 239.75 74.88C239.75 76.2667 240.217 77.3867 241.15 78.24C242.11 79.0933 243.297 79.52 244.71 79.52C246.07 79.52 247.15 79.16 247.95 78.44C248.777 77.6933 249.19 76.76 249.19 75.64C249.19 74.8933 249.017 74.2933 248.67 73.84C248.35 73.3867 248.003 73.1067 247.63 73C247.443 72.9467 247.31 72.9333 247.23 72.96C247.177 72.9867 247.07 73 246.91 73C246.43 73 246.283 72.7067 246.47 72.12C246.603 71.6933 246.857 71.3733 247.23 71.16C247.63 70.92 248.043 70.8267 248.47 70.88C248.897 70.9333 249.363 71.1467 249.87 71.52C250.403 71.8667 250.87 72.3733 251.27 73.04C251.67 73.68 251.87 74.4667 251.87 75.4C251.87 76.5733 251.523 77.5867 250.83 78.44C250.163 79.2933 249.283 79.96 248.19 80.44C247.097 80.8933 245.923 81.12 244.67 81.12ZM241.03 86.28L244.91 83.64C245.043 83.56 245.217 83.48 245.43 83.4C245.643 83.2933 245.937 83.24 246.31 83.24H260.71C261.083 83.24 261.337 83.3467 261.47 83.56C261.63 83.7467 261.71 83.96 261.71 84.2L261.75 93.64C261.75 94.12 261.563 94.4667 261.19 94.68C260.683 94.9467 259.71 95.12 258.27 95.2C256.83 95.3067 255.217 95.2267 253.43 94.96C252.097 94.7467 250.777 94.4 249.47 93.92C248.163 93.4667 247.11 92.9333 246.31 92.32V93.52C246.31 93.7333 246.23 93.9467 246.07 94.16C245.91 94.3733 245.75 94.52 245.59 94.6C245.323 94.7333 245.03 94.8 244.71 94.8C244.39 94.8267 244.11 94.8 243.87 94.72V86.44C243.763 86.3867 243.51 86.4667 243.11 86.68C242.737 86.8667 242.363 86.9467 241.99 86.92C241.617 86.8667 241.297 86.6533 241.03 86.28ZM246.31 91.2C246.923 91.6 247.897 92 249.23 92.4C250.563 92.8267 251.923 93.1333 253.31 93.32C254.563 93.48 255.763 93.52 256.91 93.44C258.083 93.36 258.883 93.2133 259.31 93V85.04H246.31V91.2Z" fill="black"/>
</svg>
